<?xml version="1.0" encoding="UTF-8" standalone="no"?>
<svg
   id="Layer_1"
   data-name="Layer 1"
   viewBox="0 0 595 600"
   version="1.1"
   width="595"
   height="600"
   xmlns="http://www.w3.org/2000/svg"
   xmlns:svg="http://www.w3.org/2000/svg">
  <defs
     id="defs11">
    <style
       id="style9">.cls-1{fill:#d6eaf2;}.cls-13,.cls-15,.cls-19,.cls-2,.cls-7{fill:none;}.cls-19,.cls-2{stroke:#639ad6;}.cls-13,.cls-15,.cls-2,.cls-21,.cls-7{stroke-miterlimit:10;}.cls-13,.cls-15,.cls-19,.cls-2,.cls-20,.cls-21,.cls-7{stroke-width:3px;}.cls-3{fill:#f9c543;}.cls-20,.cls-4{fill:#a57574;}.cls-21,.cls-5{fill:#fff;}.cls-6{fill:#a1cbe2;}.cls-15,.cls-7{stroke:#fff;}.cls-19,.cls-20,.cls-7{stroke-linecap:round;}.cls-8{fill:#242854;}.cls-9{fill:#4e577d;}.cls-10{fill:#383c4d;}.cls-11{fill:#6874a7;}.cls-12{fill:#41465a;}.cls-13{stroke:#e59e38;}.cls-14{fill:#4e2556;}.cls-16{fill:#fff4de;}.cls-17{fill:#d4d1f4;}.cls-18{fill:#ebf4f7;}.cls-19,.cls-20{stroke-linejoin:round;}.cls-20{stroke:#4e2556;}.cls-21{stroke:#f1b104;}.cls-22{fill:#f1b104;}</style>
  </defs>
  <g
     id="g280"
     transform="matrix(4.0898448,0,0,3.9660971,-1893.7844,-965.54025)"
     style="stroke-width:0.248293">
    <g
       id="HEAD"
       style="stroke-width:0.248293">
      <path
         id="NECK"
         class="cls-4"
         d="m 499.39,295.44 c 0,0 -4,50.47 -34.26,82.44 0,0 33.89,26.87 70.7,6.82 l 4,-89.07 z"
         style="stroke-width:0.248293" />
      <path
         id="FACE"
         class="cls-4"
         d="m 587.88,284.46 c 0,0 -9,22 -5.76,62.59 3.24,40.59 -61.23,19.43 -62.32,-8.63 -1.09,-28.06 3.28,-53.62 10.57,-54 7.29,-0.38 57.51,0.04 57.51,0.04 z"
         style="stroke-width:0.248293" />
      <g
         id="HAIR"
         style="stroke-width:0.248293">
        <path
           class="cls-8"
           d="m 489.64,328.39 c 0,0 9.73,-23.08 2.89,-48.8 -5,-18.8 15.24,-29.73 32.37,-19.7 0,0 64.51,-35.54 79.06,3.29 17.54,46.8 -67.4,23.12 -68.86,24.95 -1.46,1.83 -6.31,38.25 2.8,50.64 9.11,12.39 19.19,-0.07 32.3,-0.92 13.58,-0.89 11.92,8.1 11.92,8.1 0,0 4.06,21.83 5.52,30.21 1.46,8.38 -50.49,22.53 -64.2,1.25 -12.44,-19.3 -4.5,-58.33 -9.59,-61.58 -10.56,-6.73 -19.12,5.17 -13.26,9.91 0,0 -6.43,3.89 -10.95,2.65 z"
           id="path76"
           style="stroke-width:0.248293" />
        <path
           class="cls-8"
           d="m 599.87,292.21 c -20,10.76 -61.6,-2.74 -65.32,-5.18"
           id="path78"
           style="stroke-width:0.248293" />
        <path
           class="cls-14"
           d="m 506.79,251.82 c 7,-0.55 14.6,2.2 18.11,8.7"
           id="path80"
           style="stroke-width:0.248293" />
        <ellipse
           class="cls-8"
           cx="556.78998"
           cy="315.87"
           rx="3.04"
           ry="3.8099999"
           id="ellipse82"
           style="stroke-width:0.248293" />
        <ellipse
           class="cls-8"
           cx="578.40997"
           cy="315.87"
           rx="2.3099999"
           ry="3.8099999"
           id="ellipse84"
           style="stroke-width:0.248293" />
      </g>
      <g
         id="GLASSES"
         style="stroke-width:0.248293">
        <ellipse
           class="cls-15"
           cx="555.53998"
           cy="315.32999"
           rx="11.81"
           ry="12.73"
           id="ellipse87" />
        <ellipse
           class="cls-15"
           cx="583.02002"
           cy="315.32999"
           rx="9.9700003"
           ry="12.73"
           id="ellipse89" />
        <line
           class="cls-15"
           x1="567.34998"
           y1="314.78"
           x2="573.03998"
           y2="314.78"
           id="line91" />
        <path
           class="cls-15"
           d="m 543.11,314.15 -33.73,-0.47 a 15.59,15.59 0 0 0 -11.42,5"
           id="path93" />
      </g>
    </g>
    <polyline
       class="cls-20"
       points="572.2 317.06 580.41 333.06 573.45 337.58"
       id="polyline139" />
  </g>
</svg>
