<?xml version="1.0" encoding="utf-8"?>
<!-- Generator: Adobe Illustrator 19.2.1, SVG Export Plug-In . SVG Version: 6.00 Build 0)  -->
<svg version="1.1" id="layer" xmlns="http://www.w3.org/2000/svg" xmlns:xlink="http://www.w3.org/1999/xlink" x="0px" y="0px"
	 viewBox="0 0 652 652" style="enable-background:new 0 0 652 652;" xml:space="preserve">
<style type="text/css">
	.st0{fill:#202020;}
</style>
<path class="st0" d="M279.5,333.1h-11.1c-1.7,0-3-1.3-3-3V295c0-1.7-1.3-3-3-3h-9.8c-1.7,0-3,1.3-3,3v89.1c0,1.7,1.3,3,3,3h9.8
	c1.7,0,3-1.3,3-3v-34.6c0-1.7,1.3-3,3-3h11.1c1.7,0,3,1.3,3,3v34.6c0,1.7,1.3,3,3,3h9.8c1.7,0,3-1.3,3-3V295c0-1.7-1.3-3-3-3h-9.8
	c-1.7,0-3,1.3-3,3v35.1C282.5,331.7,281.1,333.1,279.5,333.1z M328.8,294.4L313,383.5c-0.3,1.9,1.1,3.6,3,3.6h9.7
	c1.5,0,2.8-1.1,3-2.5l2.6-16.3c0.2-1.5,1.5-2.5,3-2.5h12.3c1.5,0,2.7,1.1,3,2.5l2.8,16.4c0.3,1.5,1.5,2.5,3,2.5h9.8
	c1.9,0,3.3-1.7,3-3.6l-16.9-89.1c-0.3-1.4-1.5-2.4-3-2.4h-16.4C330.3,292,329.1,293,328.8,294.4z M343.3,352.3h-6
	c-1.9,0-3.3-1.7-3-3.5l2.9-32.7c0.5-3.4,5.4-3.4,5.9-0.1l3.2,32.7C346.6,350.6,345.2,352.3,343.3,352.3z M410.8,331.9H400
	c-2.1,0-3.2-1-3.2-3v-20.6c0-2,1.1-3,3.2-3h6.2c2.1,0,3.2,1,3.2,3v9.8c0,1.7,1.3,3,3,3h9.9c1.7,0,3-1.3,3-3v-11.8
	c0-9.3-5.2-14.3-15-14.3h-14.5c-9.8,0-15,4.9-15,14.3v24.4c0,9.4,5.1,14.4,14.7,14.4h10.9c2.1,0,3,0.9,3,3v22.6c0,2.1-0.9,3-3,3
	h-6.2c-2.1,0-3.2-1-3.2-3V361c0-1.7-1.3-3-3-3h-9.9c-1.7,0-3,1.3-3,3v11.8c0,9.3,5.2,14.3,15,14.3h14.3c9.9,0,15.2-4.9,15.2-14.3
	v-26.6C425.6,336.8,420.5,331.9,410.8,331.9z M470.7,370.7c0,2.1-0.9,3-3.2,3H459c-2.1,0-3.2-1-3.2-3V295c0-1.7-1.3-3-3-3h-9.9
	c-1.7,0-3,1.3-3,3v77.8c0,9.3,5.2,14.3,15.2,14.3h16.4c9.9,0,15.2-4.9,15.2-14.3V295c0-1.7-1.3-3-3-3h-9.9c-1.7,0-3,1.3-3,3
	L470.7,370.7L470.7,370.7z M549.7,335.2v-29c0-9.3-5.2-14.3-15-14.3h-28.6c-1.7,0-3,1.3-3,3v89.1c0,1.7,1.3,3,3,3h9.8
	c1.7,0,3-1.3,3-3v-31.4c0-1.7,1.3-3,3-3c1.3,0,2.4,0.8,2.8,2l12.4,33.5c0.4,1.2,1.6,2,2.8,2h10.5c2.1,0,3.6-2.1,2.8-4.1l-12.1-31.1
	c-0.6-1.5,0.2-3.1,1.6-3.9C547.4,345.9,549.7,341.5,549.7,335.2z M533.8,308.3v25.1c0,2-1.1,3-3.2,3h-8.7c-1.7,0-3-1.3-3-3v-25.2
	c0-1.7,1.3-3,3-3h8.7C532.7,305.3,533.8,306.3,533.8,308.3z M602.1,292h-16.4c-1.5,0-2.7,1.1-3,2.5l-15.8,89.1
	c-0.3,1.8,1.1,3.6,3,3.6h9.7c1.5,0,2.8-1.1,3-2.5l2.6-16.3c0.2-1.5,1.5-2.5,3-2.5h12.3c1.5,0,2.7,1.1,3,2.5l2.8,16.4
	c0.3,1.5,1.5,2.5,3,2.5h9.9c1.9,0,3.3-1.7,3-3.6l-16.9-89.1C604.8,293,603.5,292,602.1,292L602.1,292z M597.1,352.3h-6
	c-1.9,0-3.3-1.7-3-3.5L591,319c0.5-3.4,5.4-3.4,5.9-0.1l3.2,29.8C600.4,350.6,599,352.3,597.1,352.3z M209.1,283.2
	c6.3-15.2,6.5-46.5-1.9-70.7c-2.2-4.3-8.7-3-9,1.8l-0.1,1.6c-1.5,22.8-9.9,35.4-22.2,41.4c-2,1-5.3,0.7-7.2-0.5
	c-14.7-9.3-32.1-14.6-50.8-14.6c-18.7,0-36.2,5.4-50.9,14.7c-1.9,1.2-4.2,1.5-6.3,0.7c-12.6-4.7-21.5-18.4-23-41.6l-0.1-1.6
	c-0.3-4.8-6.8-6.2-9-1.8c-8.4,24.3-8.2,55.6-1.9,70.8c3.2,7.6,3.3,16.2,0.7,24c-3.3,10-5.1,20.7-4.9,31.8
	c0.8,50.4,43.8,93.2,94.1,93.9c53.3,0.7,96.7-42.3,96.7-95.4c0-10.6-1.7-20.8-4.9-30.4C205.7,299.5,206,290.9,209.1,283.2z
	 M116.5,410.2C77.6,409.5,46,377.8,45.3,339c-0.8-41.2,32.8-74.7,74-74c38.8,0.7,70.5,32.4,71.2,71.2
	C191.2,377.4,157.7,411,116.5,410.2z M129.1,329.8l-17-26.4c-2.7-4.3-8.5-5.5-12.7-2.8c-2.7,1.7-4.3,4.6-4.2,7.9
	c0,1.8,0.6,3.5,1.6,5l11.6,18.1c0.9,1.3,0.7,3.1-0.4,4.2l-18,19.8c-3.4,3.8-3.1,9.6,0.6,13c1.7,1.6,4,2.4,6.3,2.4
	c2.5,0,4.9-1.1,6.6-3l13.3-15.6c1-1.2,2.9-1.1,3.8,0.2l9.4,13.6c0.7,1,1.5,2,2.5,2.7c3.3,2.3,7.3,2.2,10.3,0.3
	c2.7-1.7,4.3-4.6,4.3-7.9c0-1.8-0.6-3.5-1.5-5L129.1,329.8z"/>
</svg>
